<svg width="248" height="32" viewBox="0 0 248 32" fill="none" xmlns="http://www.w3.org/2000/svg">
<path d="M5.93537 31H0.0291194L10.7827 0.454545H17.6136L28.3821 31H22.4759L14.3175 6.71875H14.0788L5.93537 31ZM6.12926 19.0234H22.2372V23.468H6.12926V19.0234ZM32.4054 31V0.454545H43.8599C46.2065 0.454545 48.1752 0.892045 49.7662 1.76704C51.367 2.64204 52.5751 3.84517 53.3904 5.37642C54.2157 6.89773 54.6284 8.62784 54.6284 10.5668C54.6284 12.5256 54.2157 14.2656 53.3904 15.7869C52.5652 17.3082 51.3471 18.5064 49.7363 19.3814C48.1255 20.2464 46.1419 20.679 43.7853 20.679H36.1937V16.13H43.0396C44.4118 16.13 45.5353 15.8913 46.4103 15.4141C47.2853 14.9368 47.9316 14.2805 48.3493 13.4453C48.7768 12.6101 48.9906 11.6506 48.9906 10.5668C48.9906 9.48295 48.7768 8.52841 48.3493 7.70312C47.9316 6.87784 47.2804 6.23651 46.3954 5.77912C45.5204 5.31179 44.3919 5.07812 43.0098 5.07812H37.9387V31H32.4054ZM59.4347 31V0.454545H70.8892C73.2358 0.454545 75.2045 0.892045 76.7955 1.76704C78.3963 2.64204 79.6044 3.84517 80.4197 5.37642C81.245 6.89773 81.6577 8.62784 81.6577 10.5668C81.6577 12.5256 81.245 14.2656 80.4197 15.7869C79.5945 17.3082 78.3764 18.5064 76.7656 19.3814C75.1548 20.2464 73.1712 20.679 70.8146 20.679H63.223V16.13H70.0689C71.4411 16.13 72.5646 15.8913 73.4396 15.4141C74.3146 14.9368 74.9609 14.2805 75.3786 13.4453C75.8061 12.6101 76.0199 11.6506 76.0199 10.5668C76.0199 9.48295 75.8061 8.52841 75.3786 7.70312C74.9609 6.87784 74.3097 6.23651 73.4247 5.77912C72.5497 5.31179 71.4212 5.07812 70.0391 5.07812H64.968V31H59.4347Z" fill="#B4B4BA"/>
<path d="M103.064 8.85156C102.925 7.54901 102.338 6.5348 101.304 5.80895C100.28 5.0831 98.9476 4.72017 97.307 4.72017C96.1536 4.72017 95.1642 4.89418 94.339 5.24219C93.5137 5.5902 92.8823 6.0625 92.4448 6.65909C92.0073 7.25568 91.7836 7.93679 91.7736 8.70242C91.7736 9.33878 91.9178 9.89062 92.2061 10.358C92.5044 10.8253 92.9071 11.223 93.4142 11.5511C93.9213 11.8693 94.4831 12.1378 95.0996 12.3565C95.7161 12.5753 96.3375 12.7592 96.964 12.9084L99.8276 13.6243C100.981 13.8928 102.09 14.2557 103.154 14.7131C104.227 15.1705 105.187 15.7472 106.032 16.4432C106.887 17.1392 107.563 17.9794 108.061 18.9638C108.558 19.9482 108.806 21.1016 108.806 22.424C108.806 24.2138 108.349 25.7898 107.434 27.152C106.519 28.5043 105.197 29.5632 103.467 30.3288C101.747 31.0845 99.6635 31.4624 97.2175 31.4624C94.8411 31.4624 92.7779 31.0945 91.0279 30.3587C89.2878 29.6229 87.9256 28.549 86.9412 27.1371C85.9668 25.7251 85.4398 24.005 85.3603 21.9766H90.8042C90.8837 23.0405 91.2118 23.9254 91.7885 24.6314C92.3652 25.3374 93.1159 25.8643 94.0407 26.2124C94.9753 26.5604 96.0194 26.7344 97.1728 26.7344C98.3759 26.7344 99.4299 26.5554 100.335 26.1974C101.249 25.8295 101.965 25.3224 102.482 24.6761C102.999 24.0199 103.263 23.2543 103.273 22.3793C103.263 21.5838 103.029 20.9276 102.572 20.4105C102.115 19.8835 101.473 19.446 100.648 19.098C99.8326 18.7401 98.878 18.4219 97.7843 18.1435L94.3091 17.2486C91.7935 16.6023 89.8049 15.6229 88.3432 14.3104C86.8915 12.9879 86.1657 11.233 86.1657 9.04545C86.1657 7.24574 86.6529 5.66974 87.6273 4.31747C88.6117 2.9652 89.949 1.91619 91.6394 1.17045C93.3297 0.414771 95.2438 0.0369307 97.3816 0.0369307C99.5492 0.0369307 101.448 0.414771 103.079 1.17045C104.72 1.91619 106.007 2.95526 106.942 4.28764C107.877 5.61008 108.359 7.13139 108.389 8.85156H103.064ZM141.033 15.7273C141.033 19.0185 140.417 21.8374 139.184 24.1839C137.961 26.5206 136.29 28.3104 134.173 29.5533C132.065 30.7962 129.673 31.4176 126.999 31.4176C124.324 31.4176 121.928 30.7962 119.81 29.5533C117.702 28.3004 116.031 26.5057 114.798 24.169C113.575 21.8224 112.964 19.0085 112.964 15.7273C112.964 12.4361 113.575 9.62216 114.798 7.28551C116.031 4.93892 117.702 3.14418 119.81 1.90128C121.928 0.658379 124.324 0.0369307 126.999 0.0369307C129.673 0.0369307 132.065 0.658379 134.173 1.90128C136.29 3.14418 137.961 4.93892 139.184 7.28551C140.417 9.62216 141.033 12.4361 141.033 15.7273ZM135.47 15.7273C135.47 13.4105 135.107 11.4567 134.381 9.86577C133.665 8.26491 132.671 7.05682 131.398 6.24148C130.126 5.41619 128.659 5.00355 126.999 5.00355C125.338 5.00355 123.871 5.41619 122.599 6.24148C121.326 7.05682 120.327 8.26491 119.601 9.86577C118.885 11.4567 118.527 13.4105 118.527 15.7273C118.527 18.044 118.885 20.0028 119.601 21.6037C120.327 23.1946 121.326 24.4027 122.599 25.228C123.871 26.0433 125.338 26.451 126.999 26.451C128.659 26.451 130.126 26.0433 131.398 25.228C132.671 24.4027 133.665 23.1946 134.381 21.6037C135.107 20.0028 135.47 18.044 135.47 15.7273ZM146.265 31V0.454545H151.798V26.3615H165.251V31H146.265ZM170.982 0.454545L178.932 24.4972H179.245L187.18 0.454545H193.265L182.496 31H175.665L164.912 0.454545H170.982ZM197.288 31V0.454545H217.155V5.09304H202.822V13.3857H216.126V18.0241H202.822V26.3615H217.274V31H197.288ZM233.151 31H222.8V0.454545H233.36C236.392 0.454545 238.997 1.06605 241.175 2.28906C243.362 3.50213 245.043 5.24716 246.216 7.52415C247.389 9.80114 247.976 12.5256 247.976 15.6974C247.976 18.8793 247.384 21.6136 246.201 23.9006C245.028 26.1875 243.333 27.9425 241.115 29.1655C238.908 30.3885 236.253 31 233.151 31ZM228.333 26.2124H232.882C235.01 26.2124 236.785 25.8246 238.207 25.049C239.629 24.2635 240.698 23.0952 241.414 21.544C242.129 19.983 242.487 18.0341 242.487 15.6974C242.487 13.3608 242.129 11.4219 241.414 9.88068C240.698 8.32955 239.639 7.17117 238.237 6.40554C236.845 5.62997 235.115 5.24219 233.046 5.24219H228.333V26.2124Z" fill="black"/>
</svg>
